<?xml version="1.0" encoding="utf-8"?>
<!-- Generator: Adobe Illustrator 24.3.0, SVG Export Plug-In . SVG Version: 6.00 Build 0)  -->
<svg version="1.1" id="Calque_1" xmlns:amcharts="http://amcharts.com/ammap"
	 xmlns="http://www.w3.org/2000/svg" xmlns:xlink="http://www.w3.org/1999/xlink" x="0px" y="0px" viewBox="0 0 1920 1080"
	 style="enable-background:new 0 0 1920 1080;" xml:space="preserve">
<style type="text/css">
	.st0{clip-path:url(#SVGID_2_);}
	.st1{fill:#CCCCCC;stroke:#FFFFFF;stroke-width:0.5;}
</style>
<defs>
	
		<amcharts:ammap  bottomLatitude="-55.55" leftLongitude="-169.6" projection="mercator" rightLongitude="190.25" topLatitude="83.68">
		</amcharts:ammap>
</defs>
<g>
	<defs>
		<rect id="SVGID_1_" width="194.5" height="183.8"/>
	</defs>
	<clipPath id="SVGID_2_">
		<use xlink:href="#SVGID_1_"  style="overflow:visible;"/>
	</clipPath>
	<g class="st0">
		<path id="AF_2_" class="st1" d="M199.8,185.5l1.1-4.2"/>
		<path id="AL" class="st1" d="M87,159.1l-0.4,1.3l0.4,1.6l1.2,0.9l-0.1,1l-0.9,0.5l-0.2,1.2l-1.3,1.8l-0.5-0.3l-0.1-0.8l-1.6-1.2
			l-0.2-1.8l0.2-2.5l0.4-1.2l-0.5-0.6l-0.2-1.2l1.2-1.9l0.2,0.7l0.8-0.3l0.6,1l0.7,0.4L87,159.1z"/>
		<path id="AM" class="st1" d="M151.5,161.9l3.9-0.6l0.6,1l1.1,0.6l-0.6,0.9l1.5,1.3l-0.8,1.2l1.2,1l1.3,0.6l0.1,2.5l-1,0.1
			l-1.1-2.1l0-0.6l-1.2,0l-0.8-1l-0.6,0.1l-1.1-1.1l-2.1-0.9l0.3-1.8L151.5,161.9z"/>
		<path id="AT" class="st1" d="M76.9,134.2l-0.2,1.7l-1.6,0l0.5,0.9l-0.9,2.6l-0.5,0.7l-2.5,0.1l-1.4,0.9l-2.3-0.3l-4-1.1l-0.6-1.4
			l-2.8,0.7l-0.3,0.8l-1.7-0.6l-1.4-0.1l-1.3-0.7l0.4-1l-0.1-0.7l0.8-0.2l1.4,1.1l0.4-1.1l2.5,0.2l2-0.7l1.3,0.1l0.9,0.8l0.3-0.7
			l-0.4-2.7l1-0.5l1-2l2.1,1.4l1.6-1.7l1-0.3l2.2,1.3l1.3-0.2l1.3,0.8l-0.2,0.5L76.9,134.2z"/>
		<path id="AZ" class="st1" d="M155.5,166.9l0.8,1l1.2,0l0,0.6l1.1,2.1l-1.9-0.5l-1.4-1.7l-0.4-1.4L155.5,166.9z M162.1,161.4
			l1.2,0.3l0.5-0.9l1.7-1.5l1.5,2l1.4,2.6l1.3,0.2l0.9,1l-2.3,0.3l-0.5,2.8l-0.5,1.3l-1,0.8l0.1,1.8l-0.7,0.2l-1.7-1.9l1-1.8
			l-0.8-1.1l-1.1,0.3l-3.3,2.7l-0.1-2.5l-1.3-0.6l-1.2-1l0.8-1.2l-1.5-1.3l0.6-0.9l-1.1-0.6l-0.6-1l0.7-0.6l2.1,1.1l1.5,0.2l0.4-0.4
			l-1.4-2l0.7-0.5l0.8,0.1L162.1,161.4z"/>
		<path id="BA" class="st1" d="M82.6,147.5l1,0l-0.7,1.7l1.4,1.5l-0.4,1.8l-0.7,0.2l-0.5,0.4l-0.9,0.9l-0.4,2.1l-2.5-1.4l-1.1-1.6
			l-1.1-0.9l-1.3-1.4l-0.6-1.2l-1.4-1.8l0.6-1.6l1,0.9l0.6-0.8L77,146l2.4,0.7l1.9-0.1L82.6,147.5z"/>
		<path id="BE" class="st1" d="M38.6,120.3l2.1,0.4l2.6-0.9l1.8,2l1.5,1l-0.3,3l-0.7,0.2l-0.3,2.4l-2.5-2l-1.4,0.3l-2-2.1l-1.3-1.8
			l-1.3-0.1l-0.4-1.6L38.6,120.3z"/>
		<path id="BG" class="st1" d="M92.8,150l0.8,1.6l1.1-0.3l2.2,0.6l4.1,0.2l1.4-1l3.3-0.9l2,1.4l1.6,0.4l-1.5,1.6l-1,2.7l0.9,2.2
			l-2.4-0.5l-2.9,1.2l0,1.9l-2.5,0.4l-2-1.3l-2.2,1l-2.1-0.1l-0.2-2.5l-1.4-1.2l0.5-0.5l-0.3-0.5l0.5-1.2l1.1-1.2l-1.4-1.7l-0.3-1.4
			L92.8,150z"/>
		<path id="BY" class="st1" d="M95.2,108.5l2.7,0l3-1.8l0.7-2.7l2.3-1.6l-0.3-2.2l1.7-0.8l3-1.9l3,1.3l0.4,1.2l1.5-0.6l2.7,1.2
			l0.3,2.3l-0.6,1.3l1.8,3.2l1.1,0.9l-0.2,0.9l1.9,0.8l0.8,1.3l-1.1,1l-2.3-0.2l-0.5,0.4l0.7,1.5l0.7,2.9l-2.4,0.3l-0.9,1l-0.2,2.3
			l-1.1-0.4l-2.5,0.2l-0.7-1l-1.1,0.8l-1.1-0.6l-2.2-0.1l-3.1-1.1l-2.8-0.4l-2.2,0.1l-1.5,1.2l-1.3,0.2l-0.1-2l-0.9-2.1l1.7-0.9
			l0-1.8l-0.8-1.8L95.2,108.5z"/>
		<path id="CH" class="st1" d="M56.2,136.7l0.1,0.7l-0.4,1l1.3,0.7l1.4,0.1l-0.2,1.7l-1.2,0.7l-2.1-0.5l-0.6,1.6l-1.3,0.1l-0.5-0.6
			l-1.6,1.4l-1.4,0.2l-1.2-0.9l-1-1.8l-1.3,0.6l0-1.8l2-2.3l-0.1-1.1l1.3,0.4l0.8-0.7l2.4,0l0.6-0.9L56.2,136.7z"/>
		<path id="CY" class="st1" d="M124.4,182.7l1.9-1.5l-2.5,1l-2,0l-0.4,0.8l-0.2,0l-1.3,0.1l0.7,1.4l1.4,0.4l2.9-1.4l-0.1-0.3
			L124.4,182.7z"/>
		<path id="CZ" class="st1" d="M76.9,132.3l-1.3-0.8l-1.3,0.2l-2.2-1.3l-1,0.3l-1.6,1.7l-2.1-1.4l-1.6-1.8l-1.4-1l-0.3-1.8l-0.5-1.3
			l2-1l1-1.1l2-0.9l0.7-0.8l0.7,0.5l1.3-0.5l1.3,1.4l2.1,0.4l-0.2,1.2l1.5,0.9l0.4-1.1l1.9,0.5l0.3,1.4l2.1,0.3l1.3,2.1l-0.8,0
			l-0.4,0.8l-0.6,0.2l-0.2,1l-0.5,0.2l-0.1,0.4l-1,0.4l-1.2-0.1L76.9,132.3z"/>
		<path id="DE" class="st1" d="M57.1,103.3l0.1,1.9l2.8,1.1l0,1.7l2.9-0.9l1.6-1.3l3.2,1.9l1.3,1.5l0.7,2.4l-0.8,1.2l1,1.6l0.7,2.4
			l-0.2,1.6l1.1,2.9l-1.3,0.5l-0.7-0.5l-0.7,0.8l-2,0.9l-1,1.1l-2,1l0.5,1.3l0.3,1.8l1.4,1l1.6,1.8l-1,2l-1,0.5l0.4,2.7l-0.3,0.7
			l-0.9-0.8l-1.3-0.1l-2,0.7l-2.5-0.2l-0.4,1.1l-1.4-1.1l-0.8,0.2l-3-1.3l-0.6,0.9l-2.4,0l0.4-3l1.4-2.9l-4-0.8l-1.3-1.1l0.2-1.9
			l-0.6-1l0.3-3l-0.5-4.7l1.7,0l0.7-1.7l0.7-4.2l-0.5-1.6l0.5-1l2.3-0.3l0.5,1L54,108l-0.6-1.8l-0.1-2.7l2.1,0.6L57.1,103.3z"/>
		<path id="DK" class="st1" d="M64.9,100.2l-1.7,4l-2.9-2.8l-0.4-2.1l4.1-1.7L64.9,100.2z M59.9,96l-0.7,1.9l-0.8-0.5l-2,3.6
			l0.8,2.4l-1.8,0.7l-2.1-0.6l-1.1-2.7L52,95.6l0.5-1.4l0.8-1.5l2.5-0.3l1-1.4l2.3-1.5l-0.1,2.7l-0.8,1.7l0.3,1.4L59.9,96z"/>
		<path id="DZ_1_" class="st1" d="M24.5,187.2c-0.1-0.7-0.1-1.4-0.2-2.1l-1.1-2.2l2.7-1.9l3-0.6l1.8-1.4l2.7-1.1l4.8-0.6l4.6-0.3
			l1.4,0.5l2.6-1.4l3,0L51,177l1.9-0.2l-0.6,1.8l0.4,3.3l-0.7,2.8c-0.6,0.6-1.2,1.3-1.7,1.9C41.8,186.8,33.1,187,24.5,187.2z"/>
		<path id="EE" class="st1" d="M97.5,89.1l0.3-3.1l-1,0.7L95,84.8l-0.2-3.1l3.5-1.5l3.5-0.8l3,0.9l2.9-0.2l0.4,1l-2,3.1l0.8,5
			l-1.2,1.7l-2.3,0l-2.4-1.9l-1.2-0.6L97.5,89.1z"/>
		<path id="ES" class="st1" d="M4,159l0.1-2.7L3,154.6l4-2.8l3.4,0.7l3.8,0l3,0.7l2.3-0.2l4.5,0.1l1.1,1.5l5.2,1.7l1-0.8l3.2,1.7
			l3.3-0.5l0.1,2.2l-2.7,2.5l-3.6,0.8l-0.3,1.2l-1.7,2l-1.1,3l1.1,2.1l-1.6,1.6l-0.6,2.3l-2.1,0.7l-2,2.7l-3.6,0.1l-2.7-0.1
			l-1.8,1.2l-1.1,1.3l-1.4-0.3l-1-1.2l-0.8-2l-2.6-0.5l-0.2-1.2l1-1.3l0.4-1l-1-1.1l0.8-2.3l-1.1-2.2l1.2-0.3l0.1-1.7l0.5-0.5l0-2.9
			l1.3-1l-0.8-1.9L9,158.8l-0.5,0.5l-1.7,0l-0.7-1.8L5,158L4,159z"/>
		<path id="FI" class="st1" d="M109.5,17.5l-0.4,5.4l4.3,5l-2.6,5.5l3.3,8l-1.9,5.8l2.5,4.9l-1.1,4.1l4.2,4.3l-1.1,3.1l-2.6,3.5
			l-6,7.4l-5.1,0.5L98,76.8L93.4,78l-1.6-3.1l-2.7-1.9l0.6-5.7l-1.4-5.4l1.3-3.6l2.5-3.9l6.4-7l1.9-1.4l-0.3-2.8l-3.9-3.2l-0.9-2.7
			l-0.1-11.1L90.9,21l-3.7-3.8l1.7-2.1l3.1,4.2l3.7-0.4l3,1.9l2.7-3.4l1.4-5.9l4.4-2.8l3.6,3.3L109.5,17.5z"/>
		<path id="FR" class="st1" d="M56.1,157.9l-0.9,2.9l-1.3-0.8l-0.6-2.5l0.6-1.4l1.8-1.5L56.1,157.9z M39.4,124.6l2,2.1l1.4-0.3
			l2.5,2l0.6,0.4l0.8-0.1l1.3,1.1l4,0.8l-1.4,2.9l-0.4,3l-0.8,0.7l-1.3-0.4l0.1,1l-2.1,2.3l0,1.8l1.3-0.6l1,1.8l-0.1,1.1l0.8,1.5
			l-1,1.2l0.7,3l1.5,0.5l-0.3,1.7l-2.5,2.2l-5.5-1l-4.1,1.2l-0.3,2.3l-3.3,0.5l-3.2-1.7l-1,0.8l-5.2-1.7l-1.1-1.5l1.5-2.3l0.5-7.9
			l-2.9-4.3l-2.1-2.1l-4.3-1.6l-0.3-3.1l3.6-0.9l4.7,1.1l-0.9-4.8l2.6,1.8l6.5-3.4l0.8-3.6l2.5-0.9l0.4,1.6l1.3,0.1L39.4,124.6z"/>
		<path id="GB" class="st1" d="M13.4,105.4l-1.5,3.3l-2.1-1l-1.7,0.1l0.6-2.6l-0.6-2.6l2.4-0.2L13.4,105.4z M20.9,84.6l-3,5.7
			l2.9-0.7l3.1,0l-0.7,4.2l-2.5,4.5l2.9,0.3l0.2,0.5l2.5,5.8l1.9,0.8l1.7,5.4l0.8,1.8L34,114l-0.3,2.9l-1.4,1.3l1.1,2.3l-2.5,2.3
			l-3.8,0l-4.8,1.2l-1.3-0.9l-1.9,2.1l-2.6-0.5l-2,1.7l-1.5-0.9l4.1-4.6l2.5-1l0,0l-4.4-0.7l-0.8-1.8l2.9-1.4l-1.5-2.5l0.5-3.1
			l4.2,0.4h0l0.4-2.7l-1.9-3l0-0.1l-3.4-0.9l-0.7-1.3l1-2.2l-0.9-1.4l-1.5,2.3l-0.2-4.8l-1.4-2.6l1-5.4l2.2-4.3l2.2,0.4L20.9,84.6z"
			/>
		<path id="GE" class="st1" d="M145.8,160.2l0.4-1.6l-0.7-2.6l-1.6-1.4l-1.6-0.4l-1-1.2l0.3-0.5l2.4,0.7l4.1,0.6l3.8,1.8l0.5,0.7
			l1.7-0.6l2.6,0.8l0.9,1.5l1.8,0.9l-0.7,0.5l1.4,2l-0.4,0.4l-1.5-0.2l-2.1-1.1l-0.7,0.6l-3.9,0.6l-2.7-1.8L145.8,160.2z"/>
		<path id="GR" class="st1" d="M95.8,181.1l1.5,1.2l2.2-0.2l2.1,0.2l-0.1,0.6l1.5-0.4l-0.4,1l-4,0.3l0-0.6l-3.4-0.7L95.8,181.1z
			 M103.9,160.1l-0.9,2.3l-0.7,0.4l-1.7-0.1l-1.5-0.4l-3.4,1l1.9,2.1l-1.4,0.6l-1.6,0l-1.5-1.9l-0.5,0.8l0.6,2.2l1.4,1.7l-1.1,0.8
			l1.6,1.6l1.4,1l0,2l-1.4-1.1l-1.2,0.2l0.8,1.8l-0.9,0.2l-1-0.7l1.2,4l-0.6,0l-0.4-1.3l-0.6,0l-0.3,1.3l-0.5-0.3l0.1-0.7l-0.6-1
			h-0.6l0.1,0.8l-0.3,0.3l-0.6-0.5l-0.4-1l0.5-0.6l-0.4-0.7l-0.4-0.4l-0.4-0.1l-0.5-0.9l0.6-0.5l0.4-0.5l0.6,0.1l0.3-0.4l0.6-0.2
			l0.7,0.5l0.6,0.2l0.4-0.6l-0.9-0.1l-0.6-0.2l-1.3,0.3l-1.2,0l-1.1-1.6l-0.2-0.3l0.2-0.6l-1.4-1.2l-0.2-1l1.3-1.8l0.2-1.2l0.9-0.5
			l0.1-1l1.8-0.3l1.1-0.8l1.5,0.1l0.5-0.6l0.5-0.1l2.1,0.1l2.2-1l2,1.3l2.5-0.4l0-1.9L103.9,160.1z"/>
		<path id="HR" class="st1" d="M82.1,143.3l0.7,1.6l0.9,1.1l-1.1,1.5l-1.3-0.9l-1.9,0.1L77,146l-1.3,0.1l-0.6,0.8l-1-0.9l-0.6,1.6
			l1.4,1.8l0.6,1.2l1.3,1.4l1.1,0.9l1.1,1.6l2.5,1.4l-0.3,0.6l-2.6-1.4l-1.6-1.4l-2.6-1.1l-2.4-2.9l0.6-0.3l-1.3-1.6l-0.1-1.3
			l-1.8-0.6l-0.9,1.7l-0.8-1.3l0.1-1.4l0.1-0.1l2,0.1l0.5-0.7l1,0.7l1.1,0.1l0-1.1l1-0.4l0.3-1.6l2.2-1.1l0.9,0.5l2.1,1.7l2.3,0.8
			L82.1,143.3z"/>
		<path id="HU" class="st1" d="M74.7,139.5l0.9-2.6l-0.5-0.9l1.6,0l0.2-1.7l1.4,1.1l1,0.5l2.4-0.5l0.2-0.8l1.1-0.1l1.4-0.7l0.3,0.3
			l1.3-0.5l0.7-1l0.9-0.3l3,1.3l0.6-0.4l1.6,1.1l0.2,1.1l-1.7,0.9l-1.3,2.8l-1.7,2.8l-2.2,0.8l-1.8-0.2l-2.1,1.1l-1,0.6l-2.3-0.8
			l-2.1-1.7l-0.9-0.5l-0.5-1.4L74.7,139.5z"/>
		<path id="IE" class="st1" d="M11.9,108.7l0.5,3.4l-2.1,4.1l-5,2.7l-4-0.7l2.3-4.8l-1.5-4.8l3.8-3.8l2.1-2.3l0.6,2.6l-0.6,2.6
			l1.7-0.1L11.9,108.7z"/>
		<path id="IQ_1_" class="st1" d="M144.3,185.5c0.4-1.4,0.7-2.7,1.1-4.1l-0.3-2.5l1.5-0.9l1.4-2.2l1.2-0.5l3.3,0.5l1,0.9l1.3-0.6
			l1.8,4.1l1.8,1l0.2,2l-1.4,1.2c-0.2,0.9-0.4,1.8-0.7,2.6C152.5,186.5,148.4,186,144.3,185.5z"/>
		<path id="IR_1_" class="st1" d="M156.7,187c0.2-0.9,0.4-1.8,0.7-2.6l1.4-1.2l-0.2-2l-1.8-1l-1.8-4.1l-1.5-2.8l0.5-1.1L153,168
			l1.9-1l0.4,1.4l1.4,1.7l1.9,0.5l1-0.1l3.3-2.7l1.1-0.3l0.8,1.1l-1,1.8l1.7,1.9l0.7-0.2l0.9,2.6l2.7,0.7l1.9,1.8l4,0.6l4.4-0.9
			l0.3-0.8l2.5-0.7l2-2l1.9,0.1l1.2-0.7l2,0.3l3.1,1.8l2.2,0.4l3.2,3.1l2.1,0.1l0.2,2.9c-0.4,1.4-0.8,2.8-1.1,4.2
			C185.4,186,171,186.5,156.7,187z"/>
		<path id="IT" class="st1" d="M72.8,172.3l-1,2.8l0.4,1.1l-0.6,1.8l-2.1-1.3l-1.4-0.4l-3.9-1.8l0.4-1.8l3.3,0.3l2.9-0.4L72.8,172.3
			z M55.1,161.5l1.7,2.6l-0.4,4.8l-1.3-0.2l-1.1,1.2l-1.1-1l-0.1-4.4l-0.6-2.1l1.5,0.2L55.1,161.5z M64,139.9l4,1.1l-0.3,2l0.7,1.7
			l-2.2-0.6l-2.3,1.4l0.2,2l-0.3,1.1l0.9,2l2.6,2l1.4,3.2l3.1,3l2.2,0l0.7,0.8l-0.8,0.7l2.5,1.3l2.1,1.1l2.4,1.9l0.3,0.7l-0.5,1.3
			l-1.6-1.7l-2.4-0.6l-1.2,2.4l2,1.3l-0.3,1.9l-1.2,0.2l-1.5,3.1l-1.2,0.3l0-1.1l0.6-1.9l0.6-0.8l-1.1-2.1l-0.9-1.8l-1.2-0.5
			l-0.8-1.6l-1.8-0.7l-1.2-1.5l-2.1-0.2l-2.2-1.7l-2.6-2.4l-1.9-2.2l-0.9-3.8l-1.4-0.5l-2.3-1.3l-1.3,0.5l-1.6,1.8l-1.2,0.3l0.3-1.7
			l-1.5-0.5l-0.7-3l1-1.2l-0.8-1.5l0.1-1.1l1.2,0.9l1.4-0.2l1.6-1.4l0.5,0.6l1.3-0.1l0.6-1.6l2.1,0.5l1.2-0.7l0.2-1.7l1.7,0.6
			l0.3-0.8l2.8-0.7L64,139.9z"/>
		<path id="XK" class="st1" d="M87.5,158.3l-0.1,0.8l-0.4,0l-0.2-1.4l-0.7-0.4l-0.6-1l0.5-0.9l0.7-0.3l0.4-1.3l0.5-0.2l0.4,0.5
			l0.5,0.2l0.4,0.6l0.5,0.2l0.5,0.7l0.4,0l-0.3,0.9l-0.3,0.5l0.1,0.3l-0.6,0.1L87.5,158.3z"/>
		<path id="KZ_1_" class="st1" d="M200.5,149.3c-0.8-0.5-1.5-1-2.3-1.5l-4.3-2.8l-0.5-0.3l-7.2,2.3l0.1,14.1l-1.4,0.2l-2-2.9
			l-1.9-1.1l-3.2,0.8l-1.2,1.3l-0.2-0.9l0.7-1.6l-0.5-1.3l-3.2-1.3l-1.3-3.5l-1.5-1l-0.1-1.3l2.7,0.4l0.1-2.9l2.4-0.6l2.5,0.6
			l0.5-3.9l-0.5-2.5l-2.8,0.2l-2.4-1l-3.2,1.8l-2.6,0.9l-1.4-0.7l0.3-2.1l-1.8-2.8l-2.1,0.1l-2.4-2.8l1.6-3.2l-0.8-0.9l2.2-4.8
			l2.9,2.5l0.3-3.2l5.8-4.8l4.4-0.1l6.2,3.1l3.3,1.8l3-1.9l4.4-0.1l3.6,2.3l0.8-1.3l3.9,0.2l0.7-2.1l-4.5-3.1l2.7-2.2l-0.5-1.3
			l2.7-1.2l-2-3.2c0.4-0.5,0.9-1.1,1.3-1.6C201.2,121.8,200.9,135.5,200.5,149.3z"/>
		<path id="LB_1_" class="st1" d="M128.8,187.2c0.5-0.8,0.9-1.6,1.4-2.4l0.1-0.1l1.3,0.2l0.5,1.3c-0.5,0.4-1,0.8-1.5,1.3
			C129.9,187.4,129.3,187.3,128.8,187.2z"/>
		<path id="LT" class="st1" d="M93,106.5l-0.2-1.2l0.3-1.3l-1.2-0.8l-2.9-0.9l-0.6-4.2l3.2-1.5l4.7,0.3l2.8-0.5l0.4,1l1.5,0.3
			l2.7,2.4l0.3,2.2l-2.3,1.6l-0.7,2.7l-3,1.8l-2.7,0l-0.7-1.5L93,106.5z"/>
		<path id="LU" class="st1" d="M46.3,125.7l0.6,1l-0.2,1.9l-0.8,0.1l-0.6-0.4l0.3-2.4L46.3,125.7z"/>
		<path id="LV" class="st1" d="M88.3,98.1l0.1-3.8l1.4-3.2l2.6-1.8l2.2,3.9l2.3-0.1l0.5-4l2.4-0.9l1.2,0.6l2.4,1.9l2.3,0l1.4,1.2
			l0.2,2.5l0.9,3l-3,1.9l-1.7,0.8l-2.7-2.4l-1.5-0.3l-0.4-1l-2.8,0.5l-4.7-0.3L88.3,98.1z"/>
		<path id="MA_1_" class="st1" d="M24.5,187.2c-0.1-0.7-0.1-1.4-0.2-2.1l-1.1-2.2l-1.2,0l-2.9-0.8l-2.7,0.2l-1.7-1.5l-2.1,0
			l-0.9,2.1c-0.6,1.2-1.2,2.3-1.9,3.5C14.8,186.7,19.6,187,24.5,187.2z"/>
		<path id="MD" class="st1" d="M103.9,133.8l0.7-0.6l1.9-0.4l2.1,1.3l1.2,0.2l1.3,1.1l-0.2,1.4l1,0.7l0.4,1.7l1,1l-0.2,0.6l0.5,0.4
			l-0.7,0.3l-1.7-0.1l-0.3-0.6l-0.6,0.3l0.2,0.7l-0.8,1.3l-0.5,1.4l-0.7,0.4l-0.5-1.8l0.3-1.7l-0.1-1.8l-1.6-2.4l-0.9-1.7l-0.9-1.2
			L103.9,133.8z"/>
		<path id="ME" class="st1" d="M84.8,156.6l-0.2-0.7l-1.2,1.9l0.2,1.2l-0.6-0.3l-0.8-1.2l-1.2-0.8l0.3-0.6l0.4-2.1l0.9-0.9l0.5-0.4
			l0.7,0.7l0.4,0.5l0.9,0.4l1.1,0.8l-0.2,0.3l-0.5,0.9L84.8,156.6z"/>
		<path id="MK" class="st1" d="M87,159.1l0.4,0l0.1-0.8l1.7-0.6l0.6-0.1l1-0.2l1.3-0.1l1.4,1.2l0.2,2.5l-0.5,0.1l-0.5,0.6l-1.5-0.1
			l-1.1,0.8l-1.8,0.3l-1.2-0.9l-0.4-1.6L87,159.1z"/>
		<path id="NL" class="st1" d="M46.3,110.4l2.3,0.1l0.5,1.6l-0.7,4.2l-0.7,1.7l-1.7,0l0.5,4.7l-1.5-1l-1.8-2l-2.6,0.9l-2.1-0.4
			l1.4-1.2l2.5-6.7L46.3,110.4z"/>
		<path id="NO" class="st1" d="M108.3,0l8.8,6.2l-3.6,2.2l3.1,5.1l-4.8,3.2l-2.3,0.7l1.2-5.6l-3.6-3.3l-4.4,2.8l-1.4,5.9l-2.7,3.4
			l-3-1.9L92,19.2l-3.1-4.2l-1.7,2.1l-1.7,0.3L85,22.6l-5.3-1.2L79,25.6l-2.7,0l-1.9,5.2l-2.8,7.9l-4.4,9.5l1,2.2l-1,2.6l-2.8-0.1
			l-1.8,5.9l0.2,8l1.8,3l-0.9,6.7l-2.3,3.8l-1.2,3.1l-1.9-3.4l-5.5,6.3l-3.7,1.2l-3.9-2.7l-1-5.9l-0.9-13.3l2.6-3.9l7.4-5.2l5.5-6.6
			l5.1-9.3l6.7-13.8l4.7-5.7l7.7-9.9l6.2-3.6l4.6,0.4l4.3-7l5.1,0.4L108.3,0z"/>
		<path id="PL" class="st1" d="M71.4,121.4l-1.1-2.9l0.2-1.6l-0.7-2.4l-1-1.6l0.8-1.2l-0.7-2.4l1.9-1.4l4.4-2.2l3.5-1.6l2.8,0.8
			l0.2,1.2l2.7,0.1l3.5,0.5l5.2-0.1l1.4,0.5l0.7,1.5l0.1,2.1l0.8,1.8l0,1.8l-1.7,0.9l0.9,2.1l0.1,2l1.4,3.9l-0.3,1.2l-1.4,0.5
			l-2.5,3.6l0.7,1.9l-0.6-0.2l-2.7-1.6l-2,0.6l-1.3-0.4l-1.7,0.9l-1.4-1.5l-1.2,0.6l-0.2-0.3l-1.3-2.1l-2.1-0.3l-0.3-1.4l-1.9-0.5
			l-0.4,1.1l-1.5-0.9l0.2-1.2l-2.1-0.4L71.4,121.4z"/>
		<path id="PT" class="st1" d="M4,159l1-1l1.1-0.5l0.7,1.8l1.7,0l0.5-0.5l1.6,0.1l0.8,1.9l-1.3,1l0,2.9l-0.5,0.5L9.5,167l-1.2,0.3
			l1.1,2.2l-0.8,2.3l1,1.1l-0.4,1l-1,1.3l0.2,1.2l-1.1,0.9l-1.5-0.5l-1.4,0.4l0.4-2.7l-0.3-2.2l-1.3-0.3l-0.7-1.4l0.2-2.4l1.1-1.3
			l0.2-1.5l0.6-2.2l-0.1-1.6l-0.6-1.3L4,159z"/>
		<path id="RO" class="st1" d="M93,135.3l1.2-0.9l1.7,0.5l1.8,0l1.3,1l1-0.6l2.1-0.4l0.7-1l1.2,0l0.9,0.4l0.9,1.2l0.9,1.7l1.6,2.4
			l0.1,1.8l-0.3,1.7l0.5,1.8l1.3,0.7l1.3-0.6l1.3,0.7l0.1,1l-1.4,0.8l-0.9-0.4l-0.8,4.7l-1.6-0.4l-2-1.4l-3.3,0.9l-1.4,1l-4.1-0.2
			l-2.2-0.6l-1.1,0.3l-0.8-1.6l-0.5-0.7l0.6-0.7l-0.7-0.5l-0.9,0.9l-1.6-1.1l-0.2-1.6l-1.7-0.9l-0.3-1.3l-1.5-1.6l2.2-0.8l1.7-2.8
			l1.3-2.8L93,135.3z"/>
		<path id="RS" class="st1" d="M87.8,145.3l1.7,0.9l0.2,1.6l1.6,1.1l0.9-0.9l0.7,0.5l-0.6,0.7l0.5,0.7l-0.7,0.9l0.3,1.4l1.4,1.7
			l-1.1,1.2l-0.5,1.2l0.3,0.5l-0.5,0.5l-1.3,0.1l-1,0.2l-0.1-0.3l0.3-0.5l0.3-0.9l-0.4,0l-0.5-0.7l-0.5-0.2l-0.4-0.6l-0.5-0.2
			l-0.4-0.5l-0.5,0.2l-0.4,1.3l-0.7,0.3l0.2-0.3l-1.1-0.8l-0.9-0.4l-0.4-0.5l-0.7-0.7l0.7-0.2l0.4-1.8l-1.4-1.5l0.7-1.7l-1,0
			l1.1-1.5l-0.9-1.1l-0.7-1.6l2.1-1.1l1.8,0.2l1.5,1.6L87.8,145.3z"/>
		<path id="RU" class="st1" d="M201.6,108l-1.3,1.6l2,3.2l-2.7,1.2l0.5,1.3l-2.7,2.2l4.5,3.1l-0.7,2.1l-3.9-0.2l-0.8,1.3l-3.6-2.3
			l-4.4,0.1l-3,1.9l-3.3-1.8l-6.2-3.1l-4.4,0.1l-5.8,4.8l-0.3,3.2l-2.9-2.5l-2.2,4.8l0.8,0.9l-1.6,3.2l2.4,2.8l2.1-0.1l1.8,2.8
			l-0.3,2.1l1.4,0.7l-1.3,2.4l-2.7,0.7l-2.8,4.1l2.5,3.7l-0.3,2.6l3.1,4.5l-1.7,1.5l-0.5,0.9l-1.2-0.3l-1.9-2.3l-0.8-0.1l-1.8-0.9
			l-0.9-1.5l-2.6-0.8l-1.7,0.6l-0.5-0.7l-3.8-1.8l-4.1-0.6l-2.4-0.7l-0.3,0.5l-3.6-3.3l-3.2-1.5l-2.4-2.3l2-0.6l2.3-3.4l-1.6-1.6
			l4.1-1.7l-0.1-0.9l-2.5,0.7l0.1-1.8l1.4-1.2l2.7-0.3l0.4-1.4l-0.6-2.3l1.1-2.2l0-1.3l-4.1-1.4l-1.6,0l-1.7-2l-2.2,0.7l-3.6-1.5
			l0.1-0.9l-1-1.9l-2.2-0.2l-0.2-1.4l0.7-0.9l-1.8-2.6l-2.9,0.4l-0.9-0.2l-0.7,1l-1-0.2l-0.7-2.9l-0.7-1.5l0.5-0.4l2.3,0.2l1.1-1
			l-0.8-1.3l-1.9-0.8l0.2-0.9l-1.1-0.9l-1.8-3.2l0.6-1.3l-0.3-2.3l-2.7-1.2l-1.5,0.6l-0.4-1.2l-3-1.3l-0.9-3l-0.2-2.5l-1.4-1.2
			l1.2-1.7l-0.8-5l2-3.1l-0.4-1L111,77l-2.9-2.7l6-7.4l2.6-3.5l1.1-3.1l-4.2-4.3l1.1-4.1l-2.5-4.9l1.9-5.8l-3.3-8l2.6-5.5l-4.3-5
			l0.4-5.4l2.3-0.7l4.8-3.2l2.9-2.8l4.6,4.9l7.7,1.9l10.6,8.6l2.2,3.5l0.2,4.8l-3.1,3.7l-4.6,1.8l-12.5-5.3l-2.1,0.9l4.6,5.1
			l0.2,3.2l0.2,6.8l3.6,2l2.2,1.7l0.4-3.1l-1.7-2.8l1.8-2.5l6.8,4.1l2.4-1.6l-1.9-4.9l6.5-6.7l2.6,0.4l2.6,2.4l1.6-4.8l-2.3-4.3
			l1.4-4.4l-2.1-4.7l7.8,2.4l1.6,4.2l-3.5,0.9l0,4l2.2,2.4l4.3-1.5l0.7-4.6l5.9-3.5l9.8-6.5l2.1,0.4l-2.8,4.6l3.5,0.8l2-2.6l5.3-0.2
			l4.2-3.2l3.2,4.6 M91.9,103.2l-2.9-0.9l-3.9,1.6l-0.6,2.1l3.5,0.5l5.2-0.1l-0.2-1.2l0.3-1.3L91.9,103.2z"/>
		<path id="SE" class="st1" d="M91.5,41.9l-2.7,4.7l0.4,4l-4.5,5.1l-5.4,5.3l-2,8.4l2,4.1l2.7,3.1l-2.6,6.2l-2.9,1.3L75.4,93
			l-1.6,4.8l-3.4-0.5l-1.6,3.9l-3.2,0.2l-0.9-4.7l-2.3-5.8l-2.1-7.5l1.2-3.1l2.3-3.8l0.9-6.7l-1.8-3l-0.2-8l1.8-5.9l2.8,0.1l1-2.6
			l-1-2.2l4.4-9.5l2.8-7.9l1.9-5.2l2.7,0l0.7-4.2l5.3,1.2l0.4-5.1l1.7-0.3l3.7,3.8l4.4,5.2l0.1,11.1l0.9,2.7L91.5,41.9z"/>
		<path id="SI" class="st1" d="M68,140.9l2.3,0.3l1.4-0.9l2.5-0.1l0.5-0.7l0.5,0l0.5,1.4l-2.2,1.1l-0.3,1.6l-1,0.4l0,1.1l-1.1-0.1
			l-1-0.7l-0.5,0.7l-2-0.1l0.6-0.4l-0.7-1.7L68,140.9z"/>
		<path id="SK" class="st1" d="M82.2,128.4l0.2,0.3l1.2-0.6l1.4,1.5l1.7-0.9l1.3,0.4l2-0.6l2.7,1.6l-0.8,1.1l-0.5,1.7l-0.6,0.4
			l-3-1.3l-0.9,0.3l-0.7,1l-1.3,0.5l-0.3-0.3l-1.4,0.7l-1.1,0.1l-0.2,0.8l-2.4,0.5l-1-0.5l-1.4-1.1l-0.3-1.5l0.2-0.5l0.4-0.9
			l1.2,0.1l1-0.4l0.1-0.4l0.5-0.2l0.2-1l0.6-0.2l0.4-0.8L82.2,128.4z"/>
		<path id="SY_1_" class="st1" d="M130.4,187.5c0.5-0.4,1-0.8,1.5-1.3l-0.5-1.3l-1.3-0.2l-0.3-2.6l0.7-1.4l0.8-0.8l0.8-0.8l0.2-1.9
			l0.9,0.7l3.1-1l1.5,0.7l2.3,0l3.2-1.3l1.5,0.1l3.2-0.5l-1.4,2.2l-1.5,0.9l0.3,2.5c-0.4,1.4-0.7,2.7-1.1,4.1
			C139.7,186.2,135.1,186.8,130.4,187.5z"/>
		<path id="TM_1_" class="st1" d="M200.9,181.3c-0.1-1-0.2-1.9-0.2-2.9l-2.1-0.1l-3.2-3.1l-2.2-0.4l-3.1-1.8l-2-0.3l-1.2,0.7
			l-1.9-0.1l-2,2l-2.5,0.7l-0.5-2.5l0.4-3.7l-2.2-1.2l0.7-2.5l-1.9-0.2l0.6-3.1l2.6,0.9l2.5-1.2l-2-2.2l-0.8-2.1l-2.3,1l-0.3,2.7
			l-0.9-2.4l1.2-1.3l3.2-0.8l1.9,1.1l2,2.9l1.4-0.2l3.2-0.1l-0.5-1.9l2.4-1.3l2.4-2.2l3.8,2l0.3,3l1.1,0.8l3-0.2
			c0.3,0.2,0.6,0.4,0.9,0.7C202.2,168.4,201.6,174.8,200.9,181.3z"/>
		<path id="TN_1_" class="st1" d="M50.4,186.6c0.6-0.6,1.2-1.3,1.7-1.9l0.7-2.8l-0.4-3.3l0.6-1.8l3.1-1.4l2,0.4l-0.1,1.8l2.4-1.3
			l0.2,0.7l-1.4,1.7l0,1.6l1,0.9l-0.4,3l-1.8,1.7l0.5,1.8c0.5,0,1,0,1.5,0.1C56.6,187.3,53.5,186.9,50.4,186.6z"/>
		<path id="TR" class="st1" d="M132.8,161l4,1.4l3.3-0.6l2.4,0.3l3.3-1.9l3-0.2l2.7,1.8l0.5,1.3l-0.3,1.8l2.1,0.9l1.1,1.1l-1.9,1
			l0.9,4.1l-0.5,1.1l1.5,2.8l-1.3,0.6l-1-0.9l-3.3-0.5l-1.2,0.5l-3.2,0.5l-1.5-0.1l-3.2,1.3l-2.3,0l-1.5-0.7l-3.1,1l-0.9-0.7
			l-0.2,1.9l-0.8,0.8l-0.8,0.8l-1-1.6l1.1-1.3l-1.7,0.3l-2.3-0.8l-1.9,2l-4.3,0.4l-2.3-1.9l-3-0.1l-0.6,1.4l-1.9,0.4l-2.7-1.8
			l-3.1,0.1l-1.7-3.5l-2-2l1.4-2.8l-1.8-1.7l3.1-3.5l4.3-0.1l1.2-2.8l5.3,0.5l3.4-2.4l3.3-1.1l4.6-0.1L132.8,161z M105.6,163.4
			l-2.3,2l-0.9-1.7l0-0.8l0.7-0.4l0.9-2.3l-1.4-1l2.9-1.2l2.4,0.5l0.3,1.4l2.4,1.2l-0.5,0.9l-3.3,0.2L105.6,163.4z"/>
		<path id="UA" class="st1" d="M118.4,116.9l1,0.2l0.7-1l0.9,0.2l2.9-0.4l1.8,2.6l-0.7,0.9l0.2,1.4l2.2,0.2l1,1.9l-0.1,0.9l3.6,1.5
			l2.2-0.7l1.7,2l1.6,0l4.1,1.4l0,1.3l-1.1,2.2l0.6,2.3l-0.4,1.4l-2.7,0.3l-1.4,1.2l-0.1,1.8l-2.2,0.3l-1.9,1.3l-2.6,0.2l-2.4,1.5
			l-1.3,1l1.5,1.5l1.4,1l2.9-0.2l-0.5,1.4l-3.1,0.7l-3.8,2.3l-1.6-0.8l0.6-1.9l-3.1-1.2l0.5-0.8l3.2-1.6l-0.4-0.8l-0.5,0.4l-0.4-0.2
			l-4.4-1l-0.2-1.5l-2.6,0.5l-1,2.2l-2.2,3l-1.3-0.7l-1.3,0.6l-1.3-0.7l0.7-0.4l0.5-1.4l0.8-1.3l-0.2-0.7l0.6-0.3l0.3,0.6l1.7,0.1
			l0.7-0.3l-0.5-0.4l0.2-0.6l-1-1l-0.4-1.7l-1-0.7l0.2-1.4l-1.3-1.1l-1.2-0.2l-2.1-1.3l-1.9,0.4l-0.7,0.6l-1.2,0l-0.7,1l-2.1,0.4
			l-1,0.6l-1.3-1l-1.8,0l-1.7-0.5l-1.2,0.9l-0.2-1.1l-1.6-1.1l0.5-1.7l0.8-1.1l0.6,0.2l-0.7-1.9l2.5-3.6l1.4-0.5l0.3-1.2l-1.4-3.9
			l1.3-0.2l1.5-1.2l2.2-0.1l2.8,0.4l3.1,1.1l2.2,0.1l1.1,0.6l1.1-0.8l0.7,1l2.5-0.2l1.1,0.4l0.2-2.3l0.9-1L118.4,116.9z"/>
		<path id="UZ_1_" class="st1" d="M202.8,161.9c-0.3-0.2-0.6-0.4-0.9-0.7l-3,0.2l-1.1-0.8l-0.3-3l-3.8-2l-2.4,2.2l-2.4,1.3l0.5,1.9
			l-3.2,0.1l-0.1-14.1l7.2-2.3l0.5,0.3l4.3,2.8c0.8,0.5,1.5,1,2.3,1.5C201.3,153.5,202.1,157.7,202.8,161.9z"/>
	</g>
</g>
</svg>
